<svg width="28" height="28" viewBox="0 0 28 28" fill="none" xmlns="http://www.w3.org/2000/svg">
<rect width="28" height="28" fill="#E5E5E5"/>
<g id="Desktop" clip-path="url(#clip0_0_1)">
<rect width="1444" height="5252" transform="translate(-148 -1383)" fill="#1E252B"/>
<g id="popular">
<g id="item">
<g id="Group 1386">
<rect id="Rectangle 5" x="-40" y="-226" width="392" height="294" rx="15" fill="#1E252B"/>
<g id="Group 1385">
<g id="Group 1383">
<g id="Group 1378">
<g id="Group 1376">
<rect id="Rectangle 320" x="-7" y="-7" width="42" height="42" rx="8" fill="#1E252B"/>
<g id="flat-color-icons:like">
<path id="Vector" d="M19.8333 5.25C17.3833 5.25 15.225 6.475 14 8.4C12.775 6.475 10.6167 5.25 8.16667 5.25C4.31667 5.25 1.16667 8.4 1.16667 12.25C1.16667 19.1917 14 26.25 14 26.25C14 26.25 26.8333 19.25 26.8333 12.25C26.8333 8.4 23.6833 5.25 19.8333 5.25Z" fill="white" fill-opacity="0.38"/>
</g>
</g>
</g>
</g>
</g>
</g>
</g>
</g>
</g>
<defs>
<clipPath id="clip0_0_1">
<rect width="1444" height="5252" fill="white" transform="translate(-148 -1383)"/>
</clipPath>
</defs>
</svg>
