<svg width="66" height="64" viewBox="0 0 66 64" fill="none" xmlns="http://www.w3.org/2000/svg">
<g opacity="0.78" clip-path="url(#clip0_32_0)">
<path fill-rule="evenodd" clip-rule="evenodd" d="M14.2569 40.2192C14.2576 41.0975 14.0814 41.9674 13.7384 42.779C13.3953 43.5906 12.8922 44.328 12.2578 44.949C11.6233 45.57 10.87 46.0624 10.041 46.3979C9.21203 46.7335 8.32358 46.9057 7.42653 46.9046C6.52993 46.905 5.64206 46.7323 4.81368 46.3964C3.9853 46.0605 3.23267 45.568 2.5988 44.9471C1.96494 44.3262 1.46229 43.5891 1.11959 42.7778C0.776891 41.9665 0.600866 41.0971 0.60158 40.2192C0.600866 39.341 0.776981 38.4714 1.11985 37.6599C1.46272 36.8485 1.96561 36.1112 2.59976 35.4903C3.23391 34.8693 3.98687 34.3769 4.81556 34.0412C5.64426 33.7054 6.53242 33.533 7.42924 33.5337H14.2596V40.2192H14.2569ZM17.6707 40.2192C17.67 39.341 17.8461 38.4714 18.189 37.6599C18.5319 36.8485 19.0348 36.1112 19.6689 35.4903C20.3031 34.8693 21.056 34.3769 21.8847 34.0412C22.7134 33.7054 23.6016 33.533 24.4984 33.5337C25.3952 33.533 26.2834 33.7054 27.1121 34.0412C27.9408 34.3769 28.6937 34.8693 29.3279 35.4903C29.962 36.1112 30.4649 36.8485 30.8078 37.6599C31.1507 38.4714 31.3268 39.341 31.3261 40.2192V56.9355C31.3268 57.8136 31.1507 58.6833 30.8078 59.4947C30.4649 60.3062 29.962 61.0435 29.3279 61.6644C28.6937 62.2853 27.9408 62.7778 27.1121 63.1135C26.2834 63.4492 25.3952 63.6217 24.4984 63.621C23.6016 63.6217 22.7134 63.4492 21.8847 63.1135C21.056 62.7778 20.3031 62.2853 19.6689 61.6644C19.0348 61.0435 18.5319 60.3062 18.189 59.4947C17.8461 58.6833 17.67 57.8136 17.6707 56.9355V40.2192Z" fill="#E01E5A"/>
<path fill-rule="evenodd" clip-rule="evenodd" d="M24.4984 13.3736C23.6013 13.3743 22.7129 13.2018 21.8841 12.8659C21.0552 12.53 20.3021 12.0373 19.6679 11.4161C19.0337 10.7949 18.5309 10.0573 18.1882 9.24554C17.8455 8.43379 17.6696 7.56384 17.6707 6.68547C17.67 5.80733 17.8461 4.93766 18.189 4.12623C18.5318 3.31479 19.0347 2.57751 19.6689 1.95657C20.303 1.33563 21.056 0.843207 21.8847 0.507479C22.7134 0.17175 23.6015 -0.00069732 24.4984 2.11916e-06C25.3952 -0.00069732 26.2834 0.17175 27.112 0.507479C27.9407 0.843207 28.6937 1.33563 29.3278 1.95657C29.962 2.57751 30.4649 3.31479 30.8078 4.12623C31.1506 4.93766 31.3267 5.80733 31.326 6.68547V13.3763H24.5011L24.4984 13.3736ZM24.4984 16.7669C25.3952 16.7662 26.2834 16.9386 27.112 17.2743C27.9407 17.6101 28.6937 18.1025 29.3278 18.7234C29.962 19.3444 30.4649 20.0817 30.8078 20.8931C31.1506 21.7045 31.3267 22.5742 31.326 23.4523C31.3267 24.3305 31.1506 25.2001 30.8078 26.0116C30.4649 26.823 29.962 27.5603 29.3278 28.1812C28.6937 28.8022 27.9407 29.2946 27.112 29.6303C26.2834 29.9661 25.3952 30.1385 24.4984 30.1378H7.37489C6.4783 30.1385 5.59036 29.9662 4.76184 29.6306C3.93333 29.295 3.18049 28.8028 2.54637 28.1822C1.91226 27.5615 1.40931 26.8246 1.06628 26.0134C0.72325 25.2023 0.546871 24.3329 0.547228 23.455C0.546514 22.5769 0.722629 21.7072 1.0655 20.8958C1.40837 20.0843 1.91126 19.347 2.54541 18.7261C3.17956 18.1052 3.93252 17.6127 4.76121 17.277C5.58991 16.9413 6.47807 16.7688 7.37489 16.7695H24.5011L24.4984 16.7669Z" fill="#36C5F0"/>
<path fill-rule="evenodd" clip-rule="evenodd" d="M51.8631 23.4523C51.8624 22.574 52.0386 21.7041 52.3817 20.8925C52.7247 20.0809 53.2279 19.3435 53.8623 18.7225C54.4967 18.1015 55.25 17.6092 56.079 17.2736C56.908 16.938 57.7965 16.7658 58.6935 16.7669C59.5903 16.7662 60.4785 16.9386 61.3072 17.2743C62.1359 17.6101 62.8889 18.1025 63.523 18.7234C64.1572 19.3444 64.6601 20.0817 65.0029 20.8931C65.3458 21.7045 65.5219 22.5742 65.5212 23.4523C65.5219 24.3305 65.3458 25.2002 65.0029 26.0116C64.6601 26.823 64.1572 27.5603 63.523 28.1812C62.8889 28.8022 62.1359 29.2946 61.3072 29.6303C60.4785 29.9661 59.5903 30.1385 58.6935 30.1378H51.8631V23.455V23.4523ZM48.4493 23.4523C48.45 24.3305 48.2739 25.2002 47.931 26.0116C47.5882 26.823 47.0853 27.5603 46.4511 28.1812C45.817 28.8022 45.064 29.2946 44.2353 29.6303C43.4066 29.9661 42.5185 30.1385 41.6217 30.1378C40.7246 30.1389 39.8361 29.9667 39.0071 29.6311C38.1781 29.2955 37.4249 28.8032 36.7904 28.1822C36.156 27.5612 35.6528 26.8238 35.3098 26.0122C34.9668 25.2006 34.7906 24.3307 34.7913 23.4523V6.68548C34.7906 5.80711 34.9668 4.93722 35.3098 4.12561C35.6528 3.31401 36.156 2.57661 36.7904 1.95563C37.4249 1.33465 38.1781 0.842289 39.0071 0.506717C39.8361 0.171145 40.7246 -0.00104452 41.6217 4.76684e-06C42.5185 -0.000694672 43.4066 0.171753 44.2353 0.507481C45.064 0.84321 45.817 1.33563 46.4511 1.95657C47.0853 2.57752 47.5882 3.3148 47.931 4.12623C48.2739 4.93766 48.45 5.80733 48.4493 6.68548V23.455V23.4523Z" fill="#2EB67D"/>
<path fill-rule="evenodd" clip-rule="evenodd" d="M41.6216 50.2474C42.5184 50.2467 43.4066 50.4191 44.2353 50.7548C45.064 51.0906 45.8169 51.583 46.4511 52.2039C47.0852 52.8249 47.5881 53.5622 47.931 54.3736C48.2739 55.185 48.45 56.0547 48.4493 56.9328C48.4504 57.8112 48.2745 58.6812 47.9318 59.4929C47.5891 60.3046 47.0862 61.0422 46.4521 61.6635C45.8179 62.2847 45.0648 62.7773 44.2359 63.1132C43.4071 63.4491 42.5187 63.6217 41.6216 63.621C40.7246 63.6217 39.8362 63.4491 39.0073 63.1132C38.1784 62.7773 37.4254 62.2847 36.7912 61.6635C36.157 61.0422 35.6541 60.3046 35.3114 59.4929C34.9687 58.6812 34.7929 57.8112 34.794 56.9328V50.2474H41.6216ZM41.6216 46.9046C40.7248 46.9053 39.8366 46.7329 39.0079 46.3972C38.1792 46.0614 37.4263 45.569 36.7921 44.9481C36.158 44.3271 35.6551 43.5898 35.3122 42.7784C34.9694 41.967 34.7932 41.0973 34.794 40.2192C34.7932 39.341 34.9694 38.4714 35.3122 37.6599C35.6551 36.8485 36.158 36.1112 36.7921 35.4903C37.4263 34.8693 38.1792 34.3769 39.0079 34.0412C39.8366 33.7054 40.7248 33.533 41.6216 33.5337H58.7451C59.6419 33.533 60.5301 33.7054 61.3588 34.0412C62.1875 34.3769 62.9404 34.8693 63.5746 35.4903C64.2087 36.1112 64.7116 36.8485 65.0545 37.6599C65.3974 38.4714 65.5735 39.341 65.5728 40.2192C65.5735 41.0973 65.3974 41.967 65.0545 42.7784C64.7116 43.5898 64.2087 44.3271 63.5746 44.9481C62.9404 45.569 62.1875 46.0614 61.3588 46.3972C60.5301 46.7329 59.6419 46.9053 58.7451 46.9046H41.6216Z" fill="#ECB22E"/>
</g>
<defs>
<clipPath id="clip0_32_0">
<rect width="65.1806" height="63.8231" fill="white" transform="translate(0.547226)"/>
</clipPath>
</defs>
</svg>
