<svg width="20" height="24" viewBox="0 0 20 24" fill="none" xmlns="http://www.w3.org/2000/svg">
<path fill-rule="evenodd" clip-rule="evenodd" d="M11.1811 6.34504C10.8485 6.34504 10.5252 6.38977 10.2161 6.47395C10.4151 4.51895 11.1314 2.73505 12.2136 1.28638C16.5169 1.84197 19.855 5.83127 19.855 10.6691V17.565C19.6822 17.5755 19.5081 17.5809 19.3327 17.5809C15.8901 17.5809 12.8887 15.5146 11.3196 12.4561H15.1505V10.6691C15.1505 8.28099 13.3734 6.34504 11.1811 6.34504Z" fill="white"/>
<path fill-rule="evenodd" clip-rule="evenodd" d="M0.466705 11.2663C0.466705 5.46128 4.78663 0.755371 10.1155 0.755371C12.78 0.755371 15.1922 1.93185 16.9383 3.83395C15.3287 2.08053 13.153 0.943748 10.7355 0.776763C9.10943 2.73714 8.11926 5.33539 8.11926 8.18556C8.11926 8.39817 8.12477 8.60937 8.13564 8.81901C7.51351 9.41675 7.12107 10.2916 7.12107 11.2663V11.9912H13.11L8.73663 11.9912C10.1606 16.2216 13.8903 19.2402 18.2672 19.2402C18.7758 19.2402 19.2758 19.1994 19.7644 19.1207V23.5895H13.11V19.2401H7.12107V23.5895H0.466705V15.6157V11.2663Z" fill="white"/>
</svg>
