<svg width="590" height="620" viewBox="0 0 590 620" fill="none" xmlns="http://www.w3.org/2000/svg">
<path opacity="0.4" d="M336.278 279.205C329.048 274.664 323.86 274.572 320.713 278.834C317.481 283.097 315.95 290.324 315.95 300.425V355.096C315.95 365.474 315.099 374.092 313.313 380.949C311.527 388.084 308.55 393.088 304.467 396.053C300.469 399.111 295.026 399.852 288.136 398.462C281.417 397.165 272.996 393.273 262.96 386.972L258.197 383.914V340.826L264.236 344.625C271.465 349.166 276.229 349.722 278.61 346.478C281.162 343.235 282.438 336.563 282.438 326.463V278.278C282.438 265.676 283.543 255.761 285.84 248.533C288.051 241.213 292.559 236.58 299.279 234.541C292.559 224.07 288.051 213.692 285.84 203.592C283.628 193.491 282.523 182.187 282.523 169.584V121.399C282.523 111.299 281.247 102.959 278.695 96.5657C276.314 90.2646 271.465 84.7975 264.321 80.257L258.282 76.4578V33.3694L263.045 36.4273C273.081 42.7284 281.502 49.4928 288.221 56.6279C295.111 63.8556 300.555 71.454 304.552 79.6083C308.72 87.7627 311.697 96.473 313.398 105.832C315.184 114.913 316.035 124.643 316.035 135.021V189.692C316.035 199.793 317.651 209.059 320.798 217.306C324.03 225.553 329.218 232.039 336.363 236.487L336.278 279.205Z" fill="url(#paint0_linear_26_82)"/>
<path opacity="0.4" d="M154.088 120.843C161.318 125.384 166.506 125.477 169.653 121.214C172.885 116.952 174.416 109.724 174.416 99.6236V44.9522C174.416 34.574 175.267 25.9563 177.053 19.0992C178.839 11.9641 181.731 6.96033 185.729 3.90244C189.896 0.937218 195.34 0.195913 202.059 1.4932C208.949 2.88315 217.455 6.775 227.491 13.1688L232.254 16.2266V59.315L226.215 55.5159C218.986 50.9754 214.137 50.3267 211.586 53.5699C209.204 56.9058 208.013 63.5776 208.013 73.7705V121.955C208.013 134.465 206.908 144.473 204.611 151.7C202.4 159.021 197.892 163.654 191.172 165.692C197.892 176.163 202.4 186.542 204.611 196.642C206.823 206.742 207.928 218.047 207.928 230.649V278.834C207.928 288.935 209.119 297.182 211.501 303.575C214.052 309.969 218.901 315.529 226.13 319.977L232.169 323.776V366.864L227.406 363.806C217.37 357.505 208.864 350.648 201.974 343.513C195.255 336.378 189.811 328.78 185.644 320.533C181.646 312.471 178.754 303.761 177.053 294.494C175.267 285.413 174.416 275.684 174.416 265.305V210.634C174.416 200.534 172.8 191.267 169.653 183.02C166.421 174.773 161.233 168.287 154.088 163.839V120.843Z" fill="url(#paint1_linear_26_82)"/>
<path opacity="0.15" d="M360.859 12.7983L540.412 125.755L540.327 594.723L360.774 481.859L360.859 12.7983Z" fill="url(#paint2_linear_26_82)"/>
<path d="M327.092 74.2339L469.986 164.025V207.113L327.092 117.322V74.2339Z" fill="#587298"/>
<path opacity="0.2" d="M384.25 273.738L519.659 358.896V489.273L384.25 404.115V273.738Z" fill="url(#paint3_linear_26_82)"/>
<path opacity="0.15" d="M382.888 173.754L520.339 260.209V274.942L382.888 188.487V173.754Z" fill="white"/>
<path opacity="0.15" d="M382.888 203.406L501.712 278.093V292.826L382.888 218.14V203.406Z" fill="white"/>
<path opacity="0.15" d="M382.888 232.688L483.765 296.07V310.803L382.888 247.421V232.688Z" fill="white"/>
<path opacity="0.2" d="M360.859 12.7983L540.412 125.755V188.58L360.774 75.7167L360.859 12.7983Z" fill="url(#paint4_linear_26_82)"/>
<path opacity="0.2" d="M405.683 72.8438C405.683 82.3882 400.58 86.836 394.286 82.8515C387.992 78.867 382.888 68.0254 382.888 58.481C382.888 48.9367 387.992 44.4889 394.286 48.4734C400.58 52.4579 405.683 63.3922 405.683 72.8438Z" fill="white"/>
<path opacity="0.15" d="M37.3066 156.426L590 503.913L589.915 973.16L37.2216 625.673L37.3066 156.426Z" fill="url(#paint5_linear_26_82)"/>
<path d="M0.647552 272.07L143.456 361.86V404.949L0.647552 315.251V272.07Z" fill="#EA8C4F"/>
<path opacity="0.15" d="M74.5607 390.494L391.649 589.905V604.638L74.5607 405.227V390.494Z" fill="white"/>
<path opacity="0.15" d="M74.5607 420.146L348.101 592.129V606.862L74.5607 434.879V420.146Z" fill="white"/>
<path opacity="0.15" d="M74.5607 449.52L307.359 595.928V610.661L74.5607 464.253V449.52Z" fill="white"/>
<path opacity="0.2" d="M22.6765 464.161L254.794 610.105V740.483L22.6765 594.445V464.161Z" fill="url(#paint6_linear_26_82)"/>
<path opacity="0.15" d="M46.0669 512.253L230.468 628.175V642.908L46.0669 526.987V512.253Z" fill="white"/>
<path opacity="0.15" d="M46.0669 541.905L193.724 634.754V649.487L46.0669 556.546V541.905Z" fill="white"/>
<path opacity="0.2" d="M37.3063 156.426L589.234 503.543V567.11L37.3063 220.086V156.426Z" fill="url(#paint7_linear_26_82)"/>
<path opacity="0.2" d="M97.4412 226.016C97.4412 235.561 92.3379 240.009 86.0437 236.024C79.7496 232.04 74.6462 221.198 74.6462 211.654C74.6462 202.109 79.7496 197.662 86.0437 201.646C92.3379 205.631 97.4412 216.565 97.4412 226.016Z" fill="white"/>
<defs>
<linearGradient id="paint0_linear_26_82" x1="385.238" y1="20.3647" x2="227.269" y2="271.733" gradientUnits="userSpaceOnUse">
<stop stop-color="#424C57"/>
<stop offset="0.903" stop-color="white" stop-opacity="0"/>
</linearGradient>
<linearGradient id="paint1_linear_26_82" x1="304.813" y1="2.52833" x2="146.828" y2="253.861" gradientUnits="userSpaceOnUse">
<stop stop-color="#414B56"/>
<stop offset="0.903" stop-color="white" stop-opacity="0"/>
</linearGradient>
<linearGradient id="paint2_linear_26_82" x1="543.788" y1="127.885" x2="349.106" y2="437.484" gradientUnits="userSpaceOnUse">
<stop stop-color="white"/>
<stop offset="1" stop-color="white" stop-opacity="0"/>
</linearGradient>
<linearGradient id="paint3_linear_26_82" x1="477.883" y1="332.551" x2="423.774" y2="418.596" gradientUnits="userSpaceOnUse">
<stop stop-color="white"/>
<stop offset="1" stop-color="white" stop-opacity="0"/>
</linearGradient>
<linearGradient id="paint4_linear_26_82" x1="422.421" y1="13.7727" x2="486.079" y2="179.199" gradientUnits="userSpaceOnUse">
<stop stop-color="#424C58"/>
<stop offset="1" stop-color="white" stop-opacity="0"/>
</linearGradient>
<linearGradient id="paint5_linear_26_82" x1="406.861" y1="388.763" x2="303.739" y2="552.794" gradientUnits="userSpaceOnUse">
<stop stop-color="white"/>
<stop offset="1" stop-color="white" stop-opacity="0"/>
</linearGradient>
<linearGradient id="paint6_linear_26_82" x1="164.633" y1="553.382" x2="110.524" y2="639.428" gradientUnits="userSpaceOnUse">
<stop stop-color="#434D58"/>
<stop offset="1" stop-color="white" stop-opacity="0"/>
</linearGradient>
<linearGradient id="paint7_linear_26_82" x1="174.252" y1="105.208" x2="411.529" y2="474.144" gradientUnits="userSpaceOnUse">
<stop stop-color="#546F94"/>
<stop offset="1" stop-color="white" stop-opacity="0"/>
</linearGradient>
</defs>
</svg>
