<svg width="66" height="63" viewBox="0 0 66 63" fill="none" xmlns="http://www.w3.org/2000/svg">
<g opacity="0.78">
<mask id="mask0_26_121" style="mask-type:alpha" maskUnits="userSpaceOnUse" x="0" y="0" width="66" height="63">
<path d="M46.7437 62.497C47.2604 62.6927 47.8129 62.7831 48.367 62.7624C48.9211 62.7417 49.4649 62.6104 49.9646 62.3767L63.3319 56.1267C64.0204 55.8046 64.6013 55.3002 65.0078 54.6715C65.4143 54.0429 65.6299 53.3154 65.6298 52.573V10.1931C65.6299 9.45065 65.4143 8.72327 65.0078 8.09463C64.6013 7.46599 64.0204 6.96164 63.3319 6.63958L49.9648 0.389333C49.2095 0.0361606 48.3599 -0.0801242 47.5336 0.0565747C46.7072 0.193274 45.9451 0.576195 45.3526 1.15234L19.7623 23.8383L8.61541 15.6165C8.1126 15.2456 7.49204 15.0575 6.8614 15.0847C6.23075 15.112 5.62983 15.3529 5.16288 15.7657L1.58788 18.9258C0.409028 19.9677 0.407755 21.7698 1.58482 22.8133L11.2517 31.383L1.58482 39.9525C0.407755 40.9963 0.409028 42.7981 1.58788 43.8402L5.16288 47.0001C5.6298 47.4129 6.23071 47.6539 6.86135 47.6812C7.49199 47.7085 8.11257 47.5204 8.61541 47.1495L19.7623 38.9275L45.3526 61.6135C45.7482 61.9985 46.222 62.2994 46.7437 62.497ZM49.408 17.0609L29.9908 31.383L49.408 45.7049V17.0609Z" fill="white"/>
</mask>
<g mask="url(#mask0_26_121)">
<path d="M63.3716 6.64928L49.9938 0.390373C49.2383 0.036915 48.3884 -0.0796175 47.5617 0.0569015C46.735 0.193421 45.9724 0.576241 45.3795 1.15239L1.5853 39.9525C0.407469 40.9963 0.408996 42.7982 1.58836 43.8403L5.16565 47.0002C5.63298 47.4131 6.23427 47.654 6.86528 47.6813C7.49629 47.7086 8.11723 47.5205 8.62047 47.1496L61.3587 8.27301C63.128 6.96893 65.6692 8.19508 65.6692 10.353V10.202C65.6692 9.45976 65.4536 8.73254 65.0471 8.10404C64.6407 7.47554 64.0599 6.97129 63.3716 6.64928Z" fill="#0065A9"/>
<path d="M63.3716 56.1159L49.9938 62.3749C49.2383 62.7282 48.3884 62.8447 47.5617 62.7082C46.7351 62.5717 45.9725 62.1889 45.3795 61.6128L1.5853 22.8127C0.407469 21.7691 0.408996 19.967 1.58836 18.9252L5.16565 15.7651C5.63301 15.3522 6.23432 15.1113 6.86533 15.084C7.49633 15.0568 8.11726 15.2449 8.62047 15.6159L61.3587 54.4922C63.128 55.7963 65.6692 54.5701 65.6692 52.412V52.5632C65.6692 53.3055 65.4536 54.0327 65.0471 54.6612C64.6406 55.2897 64.0599 55.7939 63.3716 56.1159Z" fill="#007ACC"/>
<path d="M49.9518 62.3798C49.1961 62.733 48.3461 62.8493 47.5194 62.7127C46.6926 62.5761 45.93 62.1932 45.337 61.617C46.8343 63.0718 49.395 62.0413 49.395 59.9834V2.78904C49.395 0.731112 46.8343 -0.299339 45.337 1.15566C45.93 0.57947 46.6926 0.196552 47.5193 0.059863C48.346 -0.0768265 49.1961 0.039466 49.9518 0.392659L63.3273 6.64291C64.016 6.96474 64.5972 7.46901 65.004 8.09767C65.4107 8.72634 65.6265 9.45383 65.6265 10.1964V52.5765C65.6265 54.0919 64.7328 55.4734 63.3273 56.13L49.9518 62.38V62.3798Z" fill="#1F9CF0"/>
<path d="M46.7437 62.4964C47.2604 62.6921 47.8129 62.7824 48.367 62.7618C48.9211 62.7411 49.4649 62.6098 49.9646 62.3762L63.3317 56.1259C64.0202 55.8039 64.6011 55.2996 65.0077 54.6709C65.4143 54.0423 65.6299 53.3149 65.6298 52.5724V10.1925C65.6299 9.45009 65.4143 8.72271 65.0078 8.09407C64.6013 7.46543 64.0204 6.96107 63.3319 6.63902L49.9643 0.388521C49.209 0.0354046 48.3595 -0.0808494 47.5332 0.0558482C46.7069 0.192546 45.9448 0.575435 45.3523 1.15152L19.7623 23.8378L8.61541 15.6159C8.1126 15.2451 7.49204 15.0569 6.8614 15.0842C6.23075 15.1114 5.62983 15.3523 5.16288 15.7651L1.58788 18.9253C0.409028 19.9671 0.407755 21.7692 1.58482 22.8128L11.2517 31.3825L1.58482 39.9519C0.407755 40.9957 0.409028 42.7976 1.58788 43.8397L5.16288 46.9995C5.6298 47.4124 6.23071 47.6533 6.86135 47.6806C7.49199 47.7079 8.11257 47.5198 8.61541 47.149L19.7623 38.9269L45.3523 61.6129C45.748 61.998 46.2219 62.2989 46.7437 62.4964ZM49.408 17.0601L29.9908 31.3825L49.408 45.7044V17.0603V17.0601Z" fill="url(#paint0_linear_26_121)" fill-opacity="0.25"/>
</g>
</g>
<defs>
<linearGradient id="paint0_linear_26_121" x1="33.1663" y1="0.00012207" x2="33.1663" y2="62.7647" gradientUnits="userSpaceOnUse">
<stop stop-color="white"/>
<stop offset="1" stop-color="white" stop-opacity="0"/>
</linearGradient>
</defs>
</svg>
