<svg width="66" height="64" viewBox="0 0 66 64" fill="none" xmlns="http://www.w3.org/2000/svg">
<g opacity="0.78" clip-path="url(#clip0_38_6)">
<path d="M0.702759 4C0.702759 1.79086 2.49362 0 4.70276 0H61.8833C64.0925 0 65.8833 1.79086 65.8833 4V59.8234C65.8833 62.0325 64.0925 63.8234 61.8833 63.8234H4.70275C2.49362 63.8234 0.702759 62.0325 0.702759 59.8234V4Z" fill="#FF0066"/>
<path d="M22.882 20.5381C24.9436 20.5087 26.5935 18.8536 26.5737 16.8346C26.5535 14.8155 24.8713 13.192 22.8092 13.2017C20.7471 13.2114 19.0809 14.8506 19.0807 16.8698C19.0824 17.3556 19.1822 17.8363 19.3746 18.2842C19.5669 18.732 19.8478 19.1382 20.2012 19.4792C20.5545 19.8202 20.9734 20.0894 21.4335 20.2712C21.8936 20.453 22.3859 20.5438 22.882 20.5384V20.5381Z" fill="white"/>
<path d="M15.0004 40.178C14.7846 41.0813 14.6719 42.0053 14.6643 42.9329C14.6643 46.1622 16.4527 48.3065 20.254 48.3065C23.4061 48.3065 25.9637 46.4736 27.802 43.5123L26.6782 47.9288H32.9355L36.5153 33.8877C37.4095 30.3288 39.1406 28.4832 41.7687 28.4832C43.8362 28.4832 45.1217 29.7417 45.1217 31.8224C45.1319 32.4893 45.0377 33.154 44.8426 33.7932L42.9993 40.2496C42.7356 41.1387 42.604 42.0604 42.6084 42.9863C42.6084 46.0498 44.4518 48.2966 48.3077 48.2966C51.6059 48.2966 54.234 46.2183 55.6863 41.2376L53.2275 40.3057C51.997 43.6449 50.936 44.2473 50.0989 44.2473C49.2619 44.2473 48.8108 43.7013 48.8108 42.6058C48.8349 42.0311 48.9286 41.4612 49.0898 40.908L50.881 34.6154C51.2832 33.3216 51.4905 31.9773 51.4964 30.625C51.4964 25.9173 48.5893 23.4615 45.067 23.4615C41.7687 23.4615 38.416 26.3742 36.7394 29.4405L37.9674 23.9362H28.4118L27.0692 28.7868H31.5433L28.7902 39.5705C26.626 44.2782 22.6527 44.3547 22.1547 44.245C21.3359 44.0635 20.8144 43.7599 20.8144 42.713C20.8384 41.8656 20.9698 41.0244 21.2055 40.2087L25.398 23.9235H14.7814L13.4414 28.7741H17.8554L15.0004 40.178Z" fill="white"/>
</g>
<defs>
<clipPath id="clip0_38_6">
<rect width="65.1806" height="63.8234" fill="white" transform="translate(0.702759)"/>
</clipPath>
</defs>
</svg>
