<svg width="65" height="57" viewBox="0 0 65 57" fill="none" xmlns="http://www.w3.org/2000/svg">
<g clip-path="url(#clip0_26_111)">
<path d="M32.6389 0L14.5525 1.87248L0.550003 20.2781L32.6389 56.867L64.7278 20.2779L50.7255 1.87248L32.6389 0Z" fill="#FDB300"/>
<path d="M0.550003 20.2782L32.6389 56.8671L13.5475 20.2782H0.550003Z" fill="#EB6C00"/>
<path d="M51.73 20.2782L32.6389 56.8671L64.7278 20.2782H51.73Z" fill="#EB6C00"/>
<path d="M13.5477 20.2782L32.6391 56.8671L51.7305 20.2782H13.5477Z" fill="#FDAD00"/>
<path d="M14.5524 1.87248L13.5471 20.2781L32.6387 0L14.5524 1.87248Z" fill="#FDD231"/>
<path d="M51.73 20.2781L50.7252 1.87248L32.6389 0L51.73 20.2781Z" fill="#FDD231"/>
<path d="M51.7301 20.2781H64.7276L50.7253 1.87244L51.7301 20.2781Z" fill="#FDAD00"/>
<path d="M0.550003 20.2781H13.5475L14.5525 1.87244L0.550003 20.2781Z" fill="#FDAD00"/>
<path d="M32.6391 0L13.5477 20.2779H51.7305L32.6391 0Z" fill="#FEEEB7"/>
</g>
<defs>
<clipPath id="clip0_26_111">
<rect width="64.1778" height="56.95" fill="white" transform="translate(0.550003)"/>
</clipPath>
</defs>
</svg>
