<svg width="65" height="64" viewBox="0 0 65 64" fill="none" xmlns="http://www.w3.org/2000/svg">
<g opacity="0.78">
<path fill-rule="evenodd" clip-rule="evenodd" d="M11.8554 58.4356L4.95758 49.8663C3.29797 47.8045 2.39722 45.2692 2.39722 42.6597V11.63C2.39722 7.72128 5.53308 4.47794 9.57854 4.2025L41.57 2.02437C43.8942 1.86612 46.2042 2.48218 48.1134 3.76941L59.3535 11.3478C61.3655 12.7044 62.5639 14.922 62.5639 17.2885V52.5663C62.5639 56.3915 59.4805 59.5586 55.5196 59.8017L20.0127 61.9813C16.8519 62.1754 13.7968 60.8474 11.8554 58.4356Z" fill="white"/>
<path d="M22.9504 27.1574V26.7512C22.9504 25.7214 23.7775 24.8673 24.8434 24.7964L32.6076 24.2794L43.3449 40.047V26.2083L40.5811 25.8409V25.6479C40.5811 24.6061 41.4271 23.7464 42.5066 23.6912L49.5712 23.3303V24.3442C49.5712 24.8201 49.2163 25.2272 48.7299 25.3092L47.0298 25.596V48.0074L44.8962 48.7391C43.1138 49.3504 41.1294 48.696 40.109 47.1605L29.685 31.4744V46.4459L32.8935 47.0583L32.8488 47.355C32.7088 48.2847 31.904 48.9877 30.9303 49.0309L22.9504 49.3851C22.845 48.3855 23.5963 47.4911 24.6327 47.3825L25.6824 47.2726V27.3105L22.9504 27.1574Z" fill="black"/>
<path fill-rule="evenodd" clip-rule="evenodd" d="M41.8564 5.93356L9.86496 8.1117C7.94869 8.24217 6.46329 9.77849 6.46329 11.63V42.6598C6.46329 44.3994 7.06379 46.0896 8.1702 47.4641L15.068 56.0334C16.1833 57.4189 17.9384 58.1818 19.7541 58.0703L55.2611 55.8907C57.0809 55.779 58.4976 54.3239 58.4976 52.5663V17.2885C58.4976 16.2012 57.947 15.1823 57.0226 14.559L45.7824 6.98059C44.6369 6.20825 43.2509 5.83862 41.8564 5.93356ZM11.4514 12.114C11.0064 11.7855 11.2182 11.1011 11.7771 11.0611L42.0716 8.89422C43.0368 8.82518 43.996 9.09024 44.7766 9.64176L50.8549 13.9363C51.0857 14.0993 50.9774 14.4513 50.6918 14.4668L18.61 16.2067C17.6391 16.2594 16.6808 15.9749 15.9088 15.405L11.4514 12.114ZM17.1052 21.6614C17.1052 20.6221 17.9472 19.7635 19.0239 19.7051L52.9435 17.8629C53.9928 17.8059 54.8762 18.6107 54.8762 19.6236V50.1705C54.8762 51.208 54.0371 52.0656 52.9626 52.1266L19.2578 54.0391C18.09 54.1053 17.1052 53.2104 17.1052 52.083V21.6614Z" fill="black"/>
</g>
</svg>
