<svg width="57" height="44" viewBox="0 0 57 44" fill="none" xmlns="http://www.w3.org/2000/svg">
<path fill-rule="evenodd" clip-rule="evenodd" d="M8.76101 30.3366L5.82332 31.3886L5.66559 39.9551L15.8349 36.3136C12.3469 35.1652 9.79983 33.1445 8.76101 30.3366Z" fill="#FDBD39"/>
<path fill-rule="evenodd" clip-rule="evenodd" d="M10.2984 21.2759L0.10556 24.9259L5.82332 31.3885L8.76101 30.3366C7.72524 27.5368 8.364 24.372 10.2984 21.2759Z" fill="#F69833"/>
<path fill-rule="evenodd" clip-rule="evenodd" d="M27.4511 8.91486C14.4715 13.5627 6.10365 23.1535 8.76103 30.3366L55.7644 13.5053C53.107 6.32216 40.4308 4.26699 27.4511 8.91486Z" fill="#FECF33"/>
<path fill-rule="evenodd" clip-rule="evenodd" d="M37.0742 34.927C50.0539 30.2791 58.4375 20.7308 55.7644 13.5052L8.76102 30.3365C11.4341 37.5622 24.0947 39.5748 37.0742 34.927Z" fill="#EE6723"/>
<path fill-rule="evenodd" clip-rule="evenodd" d="M55.7644 13.5052L8.76102 30.3365C9.68141 32.8244 13.1912 34.0501 18.1159 34.0501C22.9171 34.0501 29.063 32.886 35.4704 30.5916C48.45 25.9437 57.5821 18.4186 55.7644 13.5052Z" fill="#F69833"/>
<path fill-rule="evenodd" clip-rule="evenodd" d="M46.4095 9.79156C41.6083 9.79156 35.4624 10.9557 29.0549 13.2501C16.0753 17.898 6.94328 25.4231 8.76101 30.3365L55.7644 13.5052C54.844 11.0173 51.3342 9.79156 46.4095 9.79156Z" fill="#FDBD39"/>
<path fill-rule="evenodd" clip-rule="evenodd" d="M43.8137 40.4088H43.8133C42.4304 40.4088 40.3902 39.1843 37.7493 36.7694C34.6249 33.9124 31.0459 29.7278 27.6715 24.9866C24.2972 20.2455 21.5245 15.5055 19.8642 11.6397C18.0552 7.427 17.7973 4.83674 19.0976 3.94085C19.3827 3.74462 19.7264 3.6452 20.119 3.6452C21.1767 3.6452 23.2375 4.41708 27.0484 8.09453L27.1317 8.1749L27.1204 8.2892C27.0944 8.55339 27.0704 8.81994 27.049 9.08156L27.0065 9.60105L26.6326 9.23183C22.5266 5.17697 20.7191 4.73921 20.1325 4.73921C19.9652 4.73921 19.832 4.77256 19.7365 4.83837C19.1725 5.22683 19.1362 7.12945 20.89 11.2132C22.5207 15.0101 25.253 19.6784 28.5838 24.3581C31.9146 29.0382 35.4388 33.161 38.5073 35.9669C41.8162 38.9925 43.3073 39.3192 43.7948 39.3192C43.9632 39.3192 44.1 39.2838 44.2014 39.2138C44.7964 38.8041 44.7971 36.7659 42.8413 32.3704L42.7515 32.1686L42.948 32.0631C43.1446 31.9576 43.3347 31.8537 43.513 31.7544L43.7485 31.6232L43.857 31.867C45.2438 34.9816 46.5401 38.9401 44.8403 40.1114C44.5537 40.3087 44.2083 40.4088 43.8137 40.4088ZM43.8133 39.9283H43.8137L43.8135 40.1685L43.8133 39.9283Z" fill="#EE6723"/>
<path fill-rule="evenodd" clip-rule="evenodd" d="M37.3893 34.7959L37.3696 35.0353C37.0414 39.0154 36.1774 43.8003 33.9247 43.994C33.8793 43.998 33.8323 44 33.7853 44C32.255 44 30.8071 41.8507 29.4821 37.6117C28.2284 33.6013 27.2555 28.2167 26.7427 22.4499C26.2299 16.6843 26.2376 11.2154 26.7644 7.05071C27.3385 2.51246 28.4317 0.142443 30.0132 0.00640229C30.0599 0.00217743 30.1084 0 30.1562 0C31.2664 0 32.9396 1.23223 34.6525 6.97174L33.5341 7.18333C32.9622 5.26535 32.3389 3.7054 31.7202 2.63349C31.1478 1.64201 30.5913 1.09599 30.1531 1.09599C30.1387 1.09599 30.1242 1.09658 30.1099 1.09778C29.4244 1.1568 28.426 2.78672 27.8695 7.18603C27.3521 11.276 27.3458 16.663 27.8519 22.3546C28.3583 28.047 29.3152 33.3511 30.5464 37.2896C31.0978 39.0536 31.7026 40.5073 32.2954 41.4938C32.842 42.4035 33.3711 42.9045 33.785 42.9045C33.7992 42.9045 33.8134 42.9038 33.8275 42.9026C34.4834 42.8463 35.7195 41.1502 36.2397 35.1827L37.3893 34.7959Z" fill="#EE6723"/>
</svg>
